<svg xmlns="http://www.w3.org/2000/svg" width="16" height="16" viewBox="0 0 16 16" fill="none">
  <path d="M14.3538 4.85372L6.35375 12.8537C6.30732 12.9002 6.25217 12.9371 6.19147 12.9623C6.13077 12.9874 6.06571 13.0004 6 13.0004C5.9343 13.0004 5.86923 12.9874 5.80853 12.9623C5.74783 12.9371 5.69269 12.9002 5.64625 12.8537L2.14625 9.35372C2.05243 9.2599 1.99973 9.13265 1.99973 8.99997C1.99973 8.86729 2.05243 8.74004 2.14625 8.64622C2.24007 8.5524 2.36732 8.49969 2.5 8.49969C2.63269 8.49969 2.75993 8.5524 2.85375 8.64622L6 11.7931L13.6463 4.14622C13.7401 4.0524 13.8673 3.99969 14 3.99969C14.1327 3.99969 14.2599 4.0524 14.3538 4.14622C14.4476 4.24004 14.5003 4.36729 14.5003 4.49997C14.5003 4.63265 14.4476 4.7599 14.3538 4.85372Z" fill="#676C74"/>
</svg>